<?xml version="1.0" standalone="no"?>
<!DOCTYPE svg PUBLIC "-//W3C//DTD SVG 20010904//EN"
 "http://www.w3.org/TR/2001/REC-SVG-20010904/DTD/svg10.dtd">
<svg version="1.0" xmlns="http://www.w3.org/2000/svg"
 width="700.000000pt" height="700.000000pt" viewBox="0 0 700.000000 700.000000"
 preserveAspectRatio="xMidYMid meet">
<metadata>
Created by potrace 1.14, written by Peter Selinger 2001-2017
</metadata>
<g transform="translate(0.000000,700.000000) scale(0.100000,-0.100000)"
fill="#000000" stroke="none">
<path d="M2428 5514 c-586 -91 -1010 -638 -951 -1227 20 -192 95 -398 197
-541 67 -93 93 -116 135 -116 34 0 71 35 798 763 729 729 763 764 763 798 0
44 -31 78 -131 144 -238 159 -529 223 -811 179z"/>
<path d="M4240 5519 c-156 -20 -369 -103 -494 -193 -94 -67 -116 -93 -116
-135 0 -34 34 -70 763 -798 728 -729 764 -763 799 -763 43 0 77 32 143 130 95
144 155 299 181 470 92 614 -337 1192 -953 1285 -106 16 -220 17 -323 4z"/>
<path d="M3385 4629 c-172 -16 -356 -82 -505 -179 -604 -397 -691 -1245 -180
-1752 331 -328 814 -422 1245 -242 258 108 491 341 599 599 298 712 -173 1500
-940 1575 -109 10 -106 10 -219 -1z"/>
<path d="M1740 3338 c-76 -78 -171 -249 -214 -388 -54 -170 -67 -339 -41 -513
36 -239 148 -460 320 -632 384 -384 981 -442 1437 -139 100 67 128 98 128 142
0 35 -31 67 -763 799 -730 730 -764 763 -798 763 -28 0 -44 -8 -69 -32z"/>
<path d="M4393 2607 c-729 -728 -763 -764 -763 -799 0 -43 32 -77 130 -143
144 -95 299 -155 470 -181 558 -84 1096 264 1254 810 77 264 52 551 -70 805
-46 97 -110 194 -159 244 -20 19 -38 27 -64 27 -34 0 -70 -34 -798 -763z"/>
</g>
</svg>
